<?xml version="1.0" standalone="no"?>
<!DOCTYPE svg PUBLIC "-//W3C//DTD SVG 20010904//EN"
 "http://www.w3.org/TR/2001/REC-SVG-20010904/DTD/svg10.dtd">
<svg version="1.0" xmlns="http://www.w3.org/2000/svg"
 width="736.000000pt" height="736.000000pt" viewBox="0 0 736.000000 736.000000"
 preserveAspectRatio="xMidYMid meet">
<metadata>
Created by potrace 1.14, written by Peter Selinger 2001-2017
</metadata>
<g transform="translate(0.000000,736.000000) scale(0.100000,-0.100000)"
fill="#000000" stroke="none">
<path d="M60 3680 l0 -3680 3625 0 3625 0 0 3680 0 3680 -3625 0 -3625 0 0
-3680z m1206 3278 c3 -4 19 -2 35 2 17 5 31 5 34 -1 4 -5 14 -5 26 1 12 7 19
7 19 1 0 -6 9 -7 23 -3 23 8 85 7 94 -2 3 -2 16 -1 29 4 13 5 24 6 24 2 0 -9
64 -6 87 2 7 3 13 2 13 -2 0 -9 104 -7 119 2 6 4 11 4 11 -1 0 -4 244 -9 543
-10 298 0 730 -2 960 -4 l419 -2 96 -34 c54 -19 102 -36 109 -37 7 -1 16 -5
19 -9 4 -4 13 -7 21 -7 23 0 229 -96 239 -111 3 -5 9 -7 14 -4 5 3 11 1 15 -5
3 -6 25 -20 47 -31 22 -11 46 -25 52 -30 6 -5 36 -27 66 -50 80 -61 145 -125
201 -200 27 -37 49 -69 49 -73 0 -3 11 -24 25 -46 14 -22 22 -40 18 -40 -5 0
-3 -4 3 -8 15 -9 94 -220 94 -250 0 -12 5 -22 11 -22 5 0 8 -4 5 -8 -3 -4 0
-28 5 -53 17 -69 18 -76 25 -147 16 -144 7 -328 -20 -427 -19 -68 -31 -103
-56 -158 -17 -37 -30 -73 -30 -81 0 -9 18 -16 58 -21 31 -4 68 -9 82 -11 14
-2 49 -6 79 -10 30 -3 62 -7 70 -9 22 -4 123 -18 141 -20 8 -1 22 -4 30 -7 8
-3 42 -11 75 -18 74 -15 262 -77 293 -96 12 -8 22 -12 22 -9 0 6 102 -46 155
-80 53 -32 109 -70 129 -85 33 -25 180 -174 198 -200 10 -14 30 -43 46 -65
130 -185 204 -453 203 -735 -1 -58 -3 -116 -6 -130 -3 -14 -8 -45 -11 -70 -3
-25 -10 -53 -15 -62 -6 -10 -8 -18 -5 -18 9 0 -41 -136 -76 -205 -43 -85 -107
-173 -177 -242 -52 -51 -182 -147 -218 -160 -10 -3 -31 -15 -46 -26 l-28 -19
98 -50 c54 -27 112 -61 130 -74 17 -13 34 -24 37 -24 10 0 67 -51 135 -120 64
-66 135 -165 183 -255 173 -328 180 -779 17 -1140 -12 -27 -23 -52 -23 -55 -2
-8 -69 -124 -81 -138 -5 -7 -18 -22 -27 -33 -10 -10 -18 -22 -18 -26 0 -15
-158 -156 -219 -197 -86 -56 -196 -115 -301 -160 -47 -21 -94 -41 -105 -46
-31 -14 -175 -48 -230 -54 -27 -4 -68 -8 -90 -11 -145 -17 -503 -24 -1437 -29
-394 -2 -722 -7 -727 -11 -6 -3 -16 -3 -22 1 -9 5 -85 9 -99 4 -18 -6 -110 -3
-110 3 0 5 -5 5 -11 2 -9 -6 -223 -10 -324 -6 l-30 1 0 932 0 933 -715 2
c-393 0 -722 2 -731 2 -14 1 -16 212 -16 2344 0 1288 3 2344 8 2347 10 7 258
5 265 -2z"/>
<path d="M1930 6152 c-37 -2 -58 -8 -64 -19 -13 -24 -17 -147 -19 -608 l-2
-430 690 1 c635 1 861 5 940 19 95 17 137 29 200 61 126 62 203 146 245 270
35 100 32 219 -8 317 -7 16 -12 30 -12 33 0 3 -15 28 -33 57 -44 67 -110 137
-167 173 -25 16 -47 31 -50 34 -3 3 -43 24 -90 47 l-85 42 -260 2 c-500 3
-1230 4 -1285 1z"/>
<path d="M2017 4300 c-107 -4 -150 -9 -156 -18 -9 -15 -7 -1154 2 -1168 4 -7
474 -11 567 -5 13 1 16 26 19 164 1 89 4 225 6 302 2 77 4 186 4 241 1 93 3
102 21 107 11 3 18 2 16 -1 -2 -4 172 -8 387 -10 216 -2 403 -4 417 -5 31 -2
28 126 35 -1427 3 -684 8 -1246 11 -1249 3 -3 298 -5 657 -4 610 1 868 6 941
18 74 12 121 22 121 25 0 1 11 3 23 6 35 6 174 65 193 80 8 8 19 14 23 14 14
0 82 55 134 109 84 87 102 133 107 274 4 105 -20 204 -68 286 -52 86 -193 208
-313 269 -44 23 -154 63 -154 56 0 -2 -11 1 -24 6 -66 25 -318 47 -736 65
-366 15 -523 24 -528 29 -11 12 -17 714 -6 725 3 3 61 6 130 7 68 0 126 3 129
6 3 3 21 2 40 -2 19 -4 36 -6 39 -3 2 3 114 6 248 8 387 6 632 20 740 41 59
12 168 75 230 133 140 130 179 307 109 491 -56 148 -171 265 -333 339 -110 50
-52 45 -823 67 -144 4 -251 5 -274 2 -3 0 -8 1 -11 2 -8 3 -348 8 -1025 15
-335 4 -641 7 -680 8 -38 1 -137 0 -218 -3z"/>
</g>
</svg>
